<svg id="g4158" xmlns="http://www.w3.org/2000/svg" width="36.376" height="11.773" viewBox="0 0 36.376 11.773">
  <defs>
    <style>
      .cls-1 {
        fill: #00579f;
      }

      .cls-2 {
        fill: #faa61a;
      }
    </style>
  </defs>
  <path id="polygon9" class="cls-1" d="M436.454,122.123h-2.947l1.843-11.4H438.3Z" transform="translate(-420.691 -110.52)"/>
  <path id="path11" class="cls-1" d="M574.018,105.533a7.262,7.262,0,0,0-2.643-.485c-2.91,0-4.959,1.552-4.972,3.77-.024,1.637,1.467,2.546,2.583,3.092,1.14.558,1.528.922,1.528,1.419-.012.763-.921,1.115-1.77,1.115a5.865,5.865,0,0,1-2.765-.606l-.388-.182-.412,2.558a8.968,8.968,0,0,0,3.286.607c3.092,0,5.1-1.528,5.129-3.892.012-1.3-.776-2.291-2.474-3.1-1.031-.521-1.662-.873-1.662-1.407.012-.485.534-.982,1.7-.982a5.006,5.006,0,0,1,2.2.436l.267.121.4-2.461Z" transform="translate(-547.573 -105.048)"/>
  <path id="path13" class="cls-1" d="M795.081,118.086c.243-.655,1.177-3.189,1.177-3.189-.012.024.242-.667.388-1.091l.206.982s.558,2.728.679,3.3Zm3.637-7.359h-2.279a1.454,1.454,0,0,0-1.54.946l-4.377,10.451h3.092l.619-1.71h3.783c.085.4.352,1.71.352,1.71H801.1l-2.377-11.4Z" transform="translate(-764.72 -110.52)"/>
  <path id="path15" class="cls-1" d="M173.111,110.727l-2.886,7.771-.315-1.576a8.723,8.723,0,0,0-4.074-4.777l2.643,9.966h3.116l4.632-11.384Z" transform="translate(-162.756 -110.52)"/>
  <path id="path17" class="cls-2" d="M85.955,110.727H81.214l-.049.23a9.86,9.86,0,0,1,7.154,5.965l-1.031-5.238a1.219,1.219,0,0,0-1.334-.958Z" transform="translate(-81.166 -110.52)"/>
</svg>
