<svg xmlns="http://www.w3.org/2000/svg" width="29.39" height="22.859" viewBox="0 0 29.39 22.859">
  <defs>
    <style>
      .cls-1 {
        fill: #231f20;
      }

      .cls-2 {
        fill: #ff5f00;
      }

      .cls-3 {
        fill: #eb001b;
      }

      .cls-4 {
        fill: #f79e1b;
      }
    </style>
  </defs>
  <g id="Layer_2" data-name="Layer 2" transform="translate(0 0)">
    <g id="Layer_1-2" data-name="Layer 1-2" transform="translate(0 0)">
      <path id="Path_2671" data-name="Path 2671" class="cls-1" d="M27.925-25.169v-1.514a.9.9,0,0,0-.834-.958.916.916,0,0,0-.115,0,.933.933,0,0,0-.848.429.886.886,0,0,0-.8-.429.8.8,0,0,0-.706.358v-.3H24.1v2.412h.53V-26.5a.565.565,0,0,1,.483-.637.561.561,0,0,1,.107,0c.348,0,.525.227.525.636v1.342h.53V-26.5a.568.568,0,0,1,.489-.637.568.568,0,0,1,.1,0c.358,0,.53.227.53.636v1.342Zm7.838-2.412H34.9v-.732h-.53v.732h-.479v.479h.489v1.11c0,.56.217.893.838.893a1.231,1.231,0,0,0,.656-.187l-.151-.449a.967.967,0,0,1-.464.136c-.252,0-.348-.161-.348-.4v-1.1h.858Zm4.475-.061a.712.712,0,0,0-.636.353v-.293h-.52v2.412h.525v-1.352c0-.4.172-.621.5-.621a.853.853,0,0,1,.328.061l.161-.5a1.121,1.121,0,0,0-.373-.066Zm-6.766.252a1.8,1.8,0,0,0-.984-.252c-.611,0-1.009.293-1.009.772,0,.394.293.636.833.711l.252.035c.288.04.424.116.424.252,0,.187-.192.293-.55.293a1.284,1.284,0,0,1-.8-.252l-.252.409a1.74,1.74,0,0,0,1.044.313c.7,0,1.1-.328,1.1-.787s-.318-.646-.843-.722l-.252-.035c-.227-.03-.409-.076-.409-.237s.172-.283.459-.283a1.554,1.554,0,0,1,.757.207Zm14.055-.252a.712.712,0,0,0-.636.353v-.293h-.52v2.412H46.9v-1.352c0-.4.172-.621.5-.621a.853.853,0,0,1,.328.061l.161-.5a1.121,1.121,0,0,0-.373-.066ZM40.766-26.38a1.218,1.218,0,0,0,1.173,1.262c.038,0,.076,0,.114,0a1.261,1.261,0,0,0,.868-.288l-.252-.424a1.06,1.06,0,0,1-.631.217.775.775,0,0,1-.709-.835.774.774,0,0,1,.709-.709,1.06,1.06,0,0,1,.631.217l.252-.424a1.261,1.261,0,0,0-.868-.288A1.219,1.219,0,0,0,40.767-26.5c0,.038,0,.076,0,.114Zm4.914,0v-1.2h-.525v.293a.916.916,0,0,0-.757-.353,1.262,1.262,0,0,0-1.261,1.261A1.262,1.262,0,0,0,44.4-25.119a.916.916,0,0,0,.757-.353v.293h.525Zm-1.953,0a.729.729,0,0,1,.771-.685.729.729,0,0,1,.685.771.729.729,0,0,1-.724.686.724.724,0,0,1-.733-.715C43.726-26.342,43.726-26.361,43.727-26.38ZM37.4-27.642a1.262,1.262,0,0,0-1.244,1.279,1.262,1.262,0,0,0,1.279,1.244h0a1.465,1.465,0,0,0,1-.328l-.252-.389a1.149,1.149,0,0,1-.7.252.668.668,0,0,1-.722-.59h1.791v-.2A1.147,1.147,0,0,0,37.4-27.637Zm0,.469a.6.6,0,0,1,.611.585H36.744a.62.62,0,0,1,.641-.585Zm13.146.8V-28.55h-.5v1.261a.916.916,0,0,0-.757-.353,1.262,1.262,0,0,0-1.261,1.261,1.262,1.262,0,0,0,1.261,1.261.916.916,0,0,0,.757-.353v.293h.5Zm.875.855a.249.249,0,0,1,.1.018.254.254,0,0,1,.078.05.251.251,0,0,1,.053.076.235.235,0,0,1,0,.187.251.251,0,0,1-.053.076.254.254,0,0,1-.078.05.237.237,0,0,1-.1.02.253.253,0,0,1-.227-.146.238.238,0,0,1,0-.187.252.252,0,0,1,.053-.076.254.254,0,0,1,.078-.05.25.25,0,0,1,.1-.018Zm0,.426a.178.178,0,0,0,.073-.015.189.189,0,0,0,.058-.04.187.187,0,0,0,0-.252.189.189,0,0,0-.058-.04.182.182,0,0,0-.073-.015.192.192,0,0,0-.073.015.185.185,0,0,0-.061.04.187.187,0,0,0,0,.252.185.185,0,0,0,.061.04.185.185,0,0,0,.081.015Zm.015-.3a.1.1,0,0,1,.066.02.063.063,0,0,1,.023.053.061.061,0,0,1-.018.045.088.088,0,0,1-.053.023l.073.083h-.058l-.068-.083h-.023v.083h-.048v-.222Zm-.056.043v.061h.056a.052.052,0,0,0,.03,0,.026.026,0,0,0,0-.023.026.026,0,0,0,0-.023.052.052,0,0,0-.03,0ZM48.6-26.375a.729.729,0,0,1,.771-.685.729.729,0,0,1,.685.771.729.729,0,0,1-.724.686.724.724,0,0,1-.733-.715C48.6-26.337,48.6-26.356,48.6-26.375Zm-17.718,0v-1.206h-.525v.293a.916.916,0,0,0-.757-.353,1.262,1.262,0,0,0-1.261,1.261A1.262,1.262,0,0,0,29.6-25.119a.916.916,0,0,0,.757-.353v.293h.525Zm-1.953,0a.729.729,0,0,1,.771-.685.729.729,0,0,1,.685.771.729.729,0,0,1-.724.686.724.724,0,0,1-.738-.71c0-.021,0-.042,0-.062Z" transform="translate(-22.577 47.903)"/>
      <g id="_Group_" data-name=" Group " transform="translate(0 0)">
        <rect id="Rectangle_1312" data-name="Rectangle 1312" class="cls-2" width="7.947" height="14.282" transform="translate(10.721 1.943)"/>
        <path id="_Path_" data-name=" Path " class="cls-3" d="M29.289-96.173a9.067,9.067,0,0,1,3.469-7.142,9.082,9.082,0,0,0-12.753,1.529,9.082,9.082,0,0,0,1.529,12.753,9.082,9.082,0,0,0,11.224,0A9.067,9.067,0,0,1,29.289-96.173Z" transform="translate(-18.064 105.257)"/>
        <path id="Path_2672" data-name="Path 2672" class="cls-4" d="M91.005-96.176a9.082,9.082,0,0,1-9.082,9.082,9.081,9.081,0,0,1-5.613-1.942,9.082,9.082,0,0,0,1.529-12.753,9.083,9.083,0,0,0-1.529-1.529,9.082,9.082,0,0,1,12.753,1.527,9.082,9.082,0,0,1,1.942,5.613Z" transform="translate(-61.616 105.26)"/>
        <path id="Path_2673" data-name="Path 2673" class="cls-4" d="M130.582-48v-.293h.119v-.061h-.3v.061h.129V-48Zm.583,0v-.353h-.091l-.106.252-.106-.252h-.081V-48h.066v-.265l.1.23h.068l.1-.23v.267Z" transform="translate(-102.06 62.707)"/>
      </g>
    </g>
  </g>
</svg>
