<svg id="Layer_1" xmlns="http://www.w3.org/2000/svg" width="48.613" height="17.281" viewBox="0 0 48.613 17.281">
  <defs>
    <style>
      .cls-1 {
        fill: #a1a1a1;
      }

      .cls-2 {
        fill: #067;
      }

      .cls-2, .cls-3, .cls-4 {
        fill-rule: evenodd;
      }

      .cls-3 {
        fill: #fff;
      }

      .cls-4 {
        fill: #e45300;
      }
    </style>
  </defs>
  <path id="Path_2674" data-name="Path 2674" class="cls-1" d="M69.477,297.054a.618.618,0,0,0,.115.4.8.8,0,0,0,.613.224c.506,0,.78-.265.78-.616a.453.453,0,0,0-.2-.394,1.863,1.863,0,0,0-.638-.208c-.241-.058-.356-.118-.356-.293,0-.2.164-.32.438-.32.194,0,.4.055.416.3h.285a.507.507,0,0,0-.12-.337.773.773,0,0,0-.556-.194c-.372,0-.753.175-.753.578a.446.446,0,0,0,.205.388,1.755,1.755,0,0,0,.536.175c.276.068.454.112.454.334,0,.1-.052.353-.463.353-.454,0-.471-.254-.476-.391Zm2.911-.063c.006-.224.019-.769-.6-.769a.659.659,0,0,0-.375.1.71.71,0,0,0-.271.646c0,.435.205.7.638.7a.594.594,0,0,0,.473-.184.466.466,0,0,0,.118-.287h-.257a.3.3,0,0,1-.323.285c-.282,0-.4-.211-.394-.5Zm-.977-.181a.369.369,0,0,1,.375-.405c.318,0,.342.274.339.405Zm1.277.821h.26V296.9c0-.235.071-.416.375-.416a.59.59,0,0,1,.074,0,.217.217,0,0,1,.049.011v-.252a.828.828,0,0,0-.178.006.371.371,0,0,0-.328.271l-.006-.265h-.26c.008.09.014.186.014.279Zm1.327,0h.26l.6-1.374h-.285l-.427,1.089-.438-1.089H73.44Zm1.039-1.689h.309v-.282h-.309Zm.027,1.689h.257v-1.374h-.257Zm.675,0h.257v-.791a.365.365,0,0,1,.359-.411.353.353,0,0,1,.244.093.31.31,0,0,1,.074.235v.873h.263V296.7a.458.458,0,0,0-.5-.468.448.448,0,0,0-.441.249l0-.222h-.257l0,.159Zm1.545.107c.011.186.027.443.577.443a.6.6,0,0,0,.572-.246,1.266,1.266,0,0,0,.066-.569l0-.859.005-.249h-.249l0,.189a.48.48,0,0,0-.432-.208.608.608,0,0,0-.61.692.77.77,0,0,0,.156.506.529.529,0,0,0,.422.17.476.476,0,0,0,.452-.233c0,.372-.006.632-.364.632-.244,0-.309-.115-.32-.268Zm.572-.323c-.315,0-.378-.279-.378-.49,0-.175.044-.5.369-.5a.406.406,0,0,1,.3.121.455.455,0,0,1,.107.342.55.55,0,0,1-.093.394A.347.347,0,0,1,77.874,297.415Zm1.564-.975h.244v.917c0,.224.112.293.348.293a1.27,1.27,0,0,0,.214-.016v-.2a.57.57,0,0,1-.123.014c-.183,0-.183-.115-.183-.183v-.824h.306v-.189h-.306v-.369l-.255.082v.287h-.244Zm1.031,1.191h.26V296.9a.655.655,0,0,1,.044-.29.355.355,0,0,1,.323-.183c.3,0,.3.266.3.389v.813h.263v-.859a.664.664,0,0,0-.046-.32.472.472,0,0,0-.432-.219.5.5,0,0,0-.446.227v-.8h-.26Zm2.725-.641c.005-.224.019-.769-.6-.769a.659.659,0,0,0-.375.1.71.71,0,0,0-.271.646c0,.435.205.7.638.7a.594.594,0,0,0,.473-.184.466.466,0,0,0,.118-.287h-.257a.3.3,0,0,1-.323.285c-.282,0-.4-.211-.394-.5Zm-.977-.181a.369.369,0,0,1,.375-.405c.318,0,.342.274.339.405Zm3.485-.621a.634.634,0,0,0-.709-.561c-.7,0-.865.621-.865,1.037,0,.383.134,1,.829,1a.669.669,0,0,0,.739-.55h-.3a.39.39,0,0,1-.1.208.428.428,0,0,1-.32.118c-.452,0-.558-.4-.558-.775,0-.328.085-.816.561-.816a.376.376,0,0,1,.427.342Zm.15.772a.647.647,0,0,0,.676.717.67.67,0,0,0,.7-.736.648.648,0,0,0-.673-.72A.665.665,0,0,0,85.852,296.961Zm.268-.016c0-.43.266-.534.43-.534.241,0,.4.181.4.523,0,.413-.222.553-.416.553C86.24,297.486,86.12,297.226,86.12,296.944Zm1.387-.687v.922a.44.44,0,0,0,.5.465.43.43,0,0,0,.438-.249l.005.235h.268c0-.077-.008-.23-.008-.257v-1.117h-.265v.777a.443.443,0,0,1-.058.257.371.371,0,0,1-.323.153c-.263,0-.293-.17-.293-.3v-.884Zm1.617,1.374h.257v-.791a.365.365,0,0,1,.359-.411.353.353,0,0,1,.243.093.31.31,0,0,1,.074.235v.873h.263V296.7a.458.458,0,0,0-.5-.468.448.448,0,0,0-.441.249l0-.222H89.12l0,.159Zm1.362-1.191h.244v.917c0,.224.112.293.347.293a1.27,1.27,0,0,0,.214-.016v-.2a.569.569,0,0,1-.123.014c-.184,0-.184-.115-.184-.183v-.824h.307v-.189h-.307v-.369l-.254.082v.287h-.244Zm1.045,1.191h.26V296.9c0-.235.071-.416.375-.416a.592.592,0,0,1,.074,0,.214.214,0,0,1,.049.011v-.252a.827.827,0,0,0-.178.006.371.371,0,0,0-.328.271l-.005-.265h-.26c.008.09.014.186.014.279Zm2.189-1.374h-.279L93,297.341l-.43-1.084h-.29l.572,1.369-.208.525h.265l.2-.512Zm.12,1.046-.175.673h.186l.307-.673Zm1.339.328h.274v-.879h.32c.356,0,.493-.066.6-.17a.522.522,0,0,0,.156-.386.535.535,0,0,0-.145-.383.65.65,0,0,0-.539-.159h-.662Zm.274-1.755h.383c.142,0,.4,0,.4.309s-.276.337-.457.337h-.326Zm1.266,1.755h.26V296.9c0-.235.071-.416.375-.416a.591.591,0,0,1,.074,0,.219.219,0,0,1,.049.011v-.252a.828.828,0,0,0-.178.006.371.371,0,0,0-.328.271l-.006-.265H96.7c.008.09.014.186.014.279Zm.935-1.689h.309v-.282h-.309Zm.027,1.689h.257v-1.374H97.68Zm1.619-1.188a.443.443,0,0,0-.427-.233c-.323,0-.621.227-.621.75,0,.6.408.7.591.7a.622.622,0,0,0,.339-.1.391.391,0,0,0,.123-.145l.005.219h.257c-.006-.071-.011-.189-.011-.219v-1.752H99.3Zm.008.482c0,.107,0,.553-.405.553-.315,0-.378-.282-.378-.526,0-.093,0-.55.378-.55a.373.373,0,0,1,.3.14A.587.587,0,0,1,99.307,296.925Zm1.764.066c.006-.224.019-.769-.6-.769a.659.659,0,0,0-.375.1.71.71,0,0,0-.271.646c0,.435.205.7.638.7a.6.6,0,0,0,.473-.184.466.466,0,0,0,.118-.287H100.8a.3.3,0,0,1-.323.285c-.282,0-.4-.211-.394-.5Zm-.977-.181a.368.368,0,0,1,.375-.405c.318,0,.342.274.34.405Zm1.9.151a.647.647,0,0,0,.676.717.67.67,0,0,0,.7-.736.648.648,0,0,0-.673-.72A.665.665,0,0,0,102,296.961Zm.268-.016c0-.43.266-.534.43-.534.241,0,.4.181.4.523,0,.413-.222.553-.416.553C102.384,297.486,102.263,297.226,102.263,296.944Zm2.1-1.3a1.5,1.5,0,0,0-.211-.019.384.384,0,0,0-.345.151.541.541,0,0,0-.057.328v.156h-.271v.186h.271v1.188h.254v-1.188h.32v-.186h-.32v-.216c0-.1,0-.2.208-.2.052,0,.107,0,.151.005Zm.66.8h.244v.917c0,.224.112.293.347.293a1.27,1.27,0,0,0,.214-.016v-.2a.569.569,0,0,1-.123.014c-.183,0-.183-.115-.183-.183v-.824h.306v-.189h-.306v-.369l-.255.082v.287h-.244Zm1.031,1.191h.26V296.9a.653.653,0,0,1,.044-.29.355.355,0,0,1,.323-.183c.3,0,.3.266.3.389v.813h.263v-.859a.664.664,0,0,0-.046-.32.472.472,0,0,0-.432-.219.5.5,0,0,0-.446.227v-.8h-.26Zm2.725-.641c.005-.224.019-.769-.6-.769a.659.659,0,0,0-.375.1.71.71,0,0,0-.271.646c0,.435.205.7.638.7a.594.594,0,0,0,.473-.184.466.466,0,0,0,.118-.287h-.257a.3.3,0,0,1-.323.285c-.282,0-.4-.211-.394-.5Zm-.977-.181a.368.368,0,0,1,.375-.405c.318,0,.342.274.339.405Zm2.021.821h.249v-1.678l1,1.678h.35v-1.976h-.252v1.634l-.972-1.634h-.38Zm3.089,0a3.179,3.179,0,0,1-.022-.345l.011-.657a.406.406,0,0,0-.046-.211.554.554,0,0,0-.487-.2.62.62,0,0,0-.443.148.439.439,0,0,0-.1.26h.257c0-.055.016-.233.277-.233a.314.314,0,0,1,.238.09c.049.06.049.134.049.3-.08-.005-.121-.008-.186-.008a1.071,1.071,0,0,0-.476.09.452.452,0,0,0-.241.4c0,.227.17.405.485.405a.445.445,0,0,0,.424-.249.74.74,0,0,0,.025.205Zm-.263-.668a.646.646,0,0,1-.066.361.329.329,0,0,1-.293.148c-.23,0-.285-.151-.285-.238,0-.279.391-.279.5-.279A1.125,1.125,0,0,1,112.651,296.964Zm.412-.523h.244v.917c0,.224.112.293.347.293a1.272,1.272,0,0,0,.214-.016v-.2a.569.569,0,0,1-.123.014c-.183,0-.183-.115-.183-.183v-.824h.307v-.189h-.307v-.369l-.254.082v.287h-.244Zm1.006-.5h.309v-.282h-.309Zm.027,1.689h.257v-1.374H114.1Zm.566-.671a.647.647,0,0,0,.676.717.67.67,0,0,0,.7-.736.648.648,0,0,0-.673-.72A.665.665,0,0,0,114.663,296.961Zm.268-.016c0-.43.265-.534.43-.534.241,0,.4.181.4.523,0,.413-.222.553-.416.553C115.051,297.486,114.931,297.226,114.931,296.944Zm1.422.687h.257v-.791a.365.365,0,0,1,.359-.411.353.353,0,0,1,.244.093.31.31,0,0,1,.074.235v.873h.263V296.7a.458.458,0,0,0-.5-.468.448.448,0,0,0-.441.249l0-.222h-.257l0,.159Z" transform="translate(-69.214 -280.901)"/>
  <path id="_719543696" data-name=" 719543696" class="cls-2" d="M206.93,185.127h2.992l7.293,9.83v-8.332c0-.843-1.153-1.467-1.153-1.467h3.74a1.962,1.962,0,0,0-.982,1.451v12.638a7.911,7.911,0,0,1-3.039-2.481c-1.309-1.779-6.218-8.191-6.218-8.191v8.488c0,.609,1.028,1.358,1.028,1.358H206.9s1.028-.562,1.028-1.311V186.75A1.908,1.908,0,0,0,206.93,185.127Zm16.094,9.828v-8.343c0-.844-1.159-1.469-1.159-1.469h4.4a1.966,1.966,0,0,0-.987,1.453v10.379c0,.8.94,1.453.94,1.453h-4.23s1.034-.641,1.034-1.3Zm-25.1-8.483V190.5h1.913a2,2,0,0,0,2.147-2.106c0-1.638-1.867-1.919-2.52-1.919Zm0,5.336v5.243h2.52c.98,0,2.8-.842,2.8-2.481a2.881,2.881,0,0,0-2.893-2.762Zm-3.259-6.669h6.467a3.137,3.137,0,0,1,3.092,2.924,2.388,2.388,0,0,1-1.758,2.606s3.08.749,3.08,3.7-3.361,4.062-4.481,4.062l-6.483-.017s1.118-.581,1.118-1.564V186.737A2.038,2.038,0,0,0,194.662,185.139Z" transform="translate(-177.654 -185.127)"/>
  <g id="_719544824" data-name=" 719544824" transform="translate(0 0.012)">
    <path id="Path_2675" data-name="Path 2675" class="cls-3" d="M67.5,198.507H80.79v-13.29H67.5Z" transform="translate(-67.5 -185.217)"/>
    <path id="Path_2676" data-name="Path 2676" class="cls-4" d="M67.5,185.217h4.153a2,2,0,0,0-.08.252c-.182.7-.443,2.731,1.38,5.7a19.328,19.328,0,0,0,1.333,1.886l-1.444,1.155c-2.395-2.932-5.342-6.669-5.342-6.669Zm0,5.067v8.223l4.027-3.251L68.751,191.8Zm13.29-.83a3.27,3.27,0,0,0-.333-.412,2.6,2.6,0,0,0-3.184-.7c-1.328.721-2.008,2.372-.351,4.556,1.361,1.8,2.592,1.972,3.285,1.87a2.689,2.689,0,0,0,.583-.165Zm0-2.409v-1.827H73.4a1.364,1.364,0,0,0-.084.331,6.506,6.506,0,0,0,.233,2.357,9.02,9.02,0,0,0,1.548,2.949,4.124,4.124,0,0,1,1.312-2.982,3.784,3.784,0,0,1,2.76-1.174,3.867,3.867,0,0,1,.795.1C80.059,186.817,80.714,187.005,80.79,187.044Zm0,8.223c-.033.028-.112.078-.247.17a3.329,3.329,0,0,1-2.427.418,5.646,5.646,0,0,1-3.3-2.157l-1.462,1.173a28.757,28.757,0,0,0,2.1,2.428,1.9,1.9,0,0,0,1.7.449l-.934.758H80.79ZM73.9,198.507H68.829l.414-.336,2.813-2.254s1.115,1.448,1.554,1.979a1.925,1.925,0,0,1,.194.28A.813.813,0,0,1,73.9,198.507Z" transform="translate(-67.5 -185.217)"/>
  </g>
</svg>
