<svg id="Permata_logo" data-name="Permata logo" xmlns="http://www.w3.org/2000/svg" width="92.704" height="23.099" viewBox="0 0 92.704 23.099">
  <defs>
    <style>
      .cls-1 {
        fill: #010101;
      }

      .cls-2 {
        fill: #0096b8;
      }

      .cls-3 {
        fill: #005774;
      }

      .cls-4 {
        fill: #1ebaed;
      }

      .cls-5 {
        fill: #007291;
      }

      .cls-6 {
        fill: #83b841;
      }

      .cls-7 {
        fill: #69943e;
      }

      .cls-8 {
        fill: #2b7a3c;
      }

      .cls-9 {
        fill: #afcc53;
      }

      .cls-10 {
        fill: #508d40;
      }

      .cls-11 {
        fill: #e31e2f;
      }

      .cls-12 {
        fill: #af1f24;
      }

      .cls-13 {
        fill: #7a1d17;
      }

      .cls-14 {
        fill: #b6202a;
      }

      .cls-15 {
        fill: #ea5361;
      }
    </style>
  </defs>
  <path id="Path_2647" data-name="Path 2647" class="cls-1" d="M129.983,42.283a2.024,2.024,0,0,0-.962-1.886,1.82,1.82,0,0,0-.731-.231,4.068,4.068,0,0,0-1-.077h-1.309v4.466h1.309a3.235,3.235,0,0,0,2.04-.539,1.66,1.66,0,0,0,.5-.731,3.647,3.647,0,0,0,.154-1m-4-6.314v3.811h1.347c1.578,0,2.387-.654,2.387-1.963,0-1.27-.847-1.886-2.5-1.886h-1.232ZM124.9,43.977a5.226,5.226,0,0,1,.038-.693V37.24l-.038-.577v-.269a.141.141,0,0,0-.039-.115.418.418,0,0,0-.308-.308,1.411,1.411,0,0,0-.616-.077V35.7h3.426a7.032,7.032,0,0,1,1.347.115,4.206,4.206,0,0,1,.962.269,1.766,1.766,0,0,1,1.078,1.732c0,1.155-.77,1.925-2.348,2.117l-.27.038a4.158,4.158,0,0,1,1.078.192,2.224,2.224,0,0,1,.654.231,2.3,2.3,0,0,1-.423,4.273,4.57,4.57,0,0,1-.924.154,11.733,11.733,0,0,1-1.232.077H123.9V44.67a1.377,1.377,0,0,0,.808-.192c.039-.039.077-.115.115-.154a.572.572,0,0,0,.077-.346" transform="translate(-76.431 -21.956)"/>
  <path id="Path_2648" data-name="Path 2648" class="cls-1" d="M145.6,42.984a1.553,1.553,0,0,0,.308,1,.921.921,0,0,0,.808.385,1.738,1.738,0,0,0,.962-.269,2.525,2.525,0,0,0,.731-.693,1.84,1.84,0,0,0,.231-.693,7.811,7.811,0,0,0,.077-1.078v-.616a8.522,8.522,0,0,0-1.386.192,2.759,2.759,0,0,0-.847.308,1.446,1.446,0,0,0-.885,1.463m3.234,1.424a1.887,1.887,0,0,1-.154-.731v-.116l-.077.077c-.077.115-.192.192-.269.308-.077.077-.192.154-.308.269a3.112,3.112,0,0,1-.77.423,2.816,2.816,0,0,1-.847.115,1.858,1.858,0,0,1-1.27-.385,1.523,1.523,0,0,1-.385-.577,1.562,1.562,0,0,1-.154-.731c0-1,.616-1.617,1.848-1.886a7.173,7.173,0,0,1,1.039-.192c.346-.038.77-.077,1.232-.115l.038-.847a3.335,3.335,0,0,0-.038-.693,1.3,1.3,0,0,0-.154-.462,1.12,1.12,0,0,0-1.078-.539,1.218,1.218,0,0,0-1.386,1.232c0,.115,0,.231-.038.269,0,.038-.038.077-.077.115a1.03,1.03,0,0,1-.423.077c-.423,0-.577-.115-.577-.346a1.13,1.13,0,0,1,.231-.654,2.139,2.139,0,0,1,.616-.539,3.664,3.664,0,0,1,1.848-.385,2.227,2.227,0,0,1,1.694.539,1.422,1.422,0,0,1,.27.539,2.758,2.758,0,0,1,.077.847v3.118a4.421,4.421,0,0,0,.038.731c.038.231.115.5.269.539a1.809,1.809,0,0,0,.731.115,1.876,1.876,0,0,0,.577-.077.635.635,0,0,0,.308-.385,3.009,3.009,0,0,0,.038-.885V39.75a1.5,1.5,0,0,0-.193-.962.883.883,0,0,0-.693-.231v-.192l1.848-.115v1.463l.115-.154a3.082,3.082,0,0,1,.924-1.039,2.583,2.583,0,0,1,1.27-.308,1.755,1.755,0,0,1,1.617.77,1.7,1.7,0,0,1,.231.616,5.527,5.527,0,0,1,.077.924v2.656a5.456,5.456,0,0,0,.038.885.468.468,0,0,0,.308.385,2.868,2.868,0,0,0,.693.077,1.785,1.785,0,0,0,.539-.077.487.487,0,0,0,.27-.385,5.458,5.458,0,0,0,.038-.885V36.9a4.686,4.686,0,0,0-.038-.808c-.039-.192-.116-.308-.27-.346a2.086,2.086,0,0,0-.577-.077v-.192l1.886-.077c-.039.423-.039.847-.039,1.309V42.1l2.079-2.31a1.432,1.432,0,0,0,.462-.847c0-.308-.308-.462-.808-.462v-.192H164.2v.192a1.384,1.384,0,0,0-.423.077,3.751,3.751,0,0,0-.423.192,1.343,1.343,0,0,0-.346.231,2.491,2.491,0,0,0-.347.308c-.115.115-.308.346-.577.616l-.693.731,1.809,2.849a2.415,2.415,0,0,0,.577.731,1.5,1.5,0,0,0,.616.269v.192h-1.655a3.469,3.469,0,0,0-.192-.346l-.27-.5-.192-.346-1.347-2.194-1.039,1.193v.654a5.456,5.456,0,0,0,.038.885c.039.192.116.346.269.385a1.231,1.231,0,0,0,.577.077v.192h-5.621v-.192c.385,0,.654-.077.731-.231a.294.294,0,0,0,.077-.192.57.57,0,0,0,.039-.269,1.769,1.769,0,0,1,.038-.385V40.482a3.936,3.936,0,0,0-.192-1.386,1.213,1.213,0,0,0-1.193-.693,1.76,1.76,0,0,0-1.5.885,2.306,2.306,0,0,0-.308.77,3.207,3.207,0,0,0-.115.847v2.233a5.458,5.458,0,0,0,.038.885c.039.192.116.346.27.385a2.086,2.086,0,0,0,.577.077v.192h-2.772a7.4,7.4,0,0,1-.924,0c-.231,0-.346-.038-.577-.038a.478.478,0,0,1-.308-.231" transform="translate(-89.162 -21.772)"/>
  <path id="Path_2649" data-name="Path 2649" class="cls-1" d="M3.1,40.628H3.68a2.162,2.162,0,0,0,1.578-.5,2.108,2.108,0,0,0,.423-.77,4.266,4.266,0,0,0,.154-1.078c0-1.5-.654-2.271-2-2.271H3.1Zm0,.346v2.271a2.157,2.157,0,0,0,.077.808.353.353,0,0,0,.269.385,5.869,5.869,0,0,0,.731.115v.308H.6v-.308a1.609,1.609,0,0,0,.693-.115.437.437,0,0,0,.269-.346,4.085,4.085,0,0,0,.077-.808V37.278a2.157,2.157,0,0,0-.077-.808c-.038-.192-.115-.308-.269-.346a1.42,1.42,0,0,0-.654-.115V35.7H4.065a4.118,4.118,0,0,1,2.541.616,2.343,2.343,0,0,1,.808,1.963A2.3,2.3,0,0,1,5.951,40.7a3.21,3.21,0,0,1-.962.231c-.385.039-.847.077-1.309.077H3.1Z" transform="translate(-0.6 -21.956)"/>
  <path id="Path_2650" data-name="Path 2650" class="cls-1" d="M19.755,45.072h2.618a5.528,5.528,0,0,0-.077-.924,2.884,2.884,0,0,0-.154-.616c-.231-.654-.539-.962-1-.962-.5,0-.885.346-1.155,1.078a2.884,2.884,0,0,0-.154.616c-.038.231-.038.5-.077.808m4.158.346H19.755a8.442,8.442,0,0,0,.077,1.116,3.059,3.059,0,0,0,.231.847,1.691,1.691,0,0,0,1.617,1.193,1.917,1.917,0,0,0,1.116-.346,2.581,2.581,0,0,0,.847-1.039l.308.192a3.258,3.258,0,0,1-1.078,1.27,2.489,2.489,0,0,1-1.54.385,3.19,3.19,0,0,1-2.387-.924,3.693,3.693,0,0,1-.847-2.425,3.586,3.586,0,0,1,.808-2.464A2.988,2.988,0,0,1,21.18,42.3a3.059,3.059,0,0,1,1.617.423,2.4,2.4,0,0,1,.924,1.193,2.884,2.884,0,0,1,.154.616c0,.231.038.539.038.885" transform="translate(-11.363 -26.015)"/>
  <path id="Path_2651" data-name="Path 2651" class="cls-1" d="M33.654,42.554l2.31-.154c0,.231.038.423.038.577v.808c.5-.924,1.116-1.386,1.809-1.386a1.13,1.13,0,0,1,.731.269.881.881,0,0,1,.308.654.646.646,0,0,1-.231.539,1.1,1.1,0,0,1-.654.192.521.521,0,0,1-.577-.385.725.725,0,0,0-.154-.346A.325.325,0,0,0,37,43.247h-.038a1.162,1.162,0,0,0-.693.577,2.918,2.918,0,0,0-.231.616,4.329,4.329,0,0,0-.077.77v2.271A4.685,4.685,0,0,0,36,48.29a.426.426,0,0,0,.269.346,2.512,2.512,0,0,0,.654.077v.308H33.5v-.308a2.182,2.182,0,0,0,.616-.077c.154-.039.231-.154.269-.346a2.558,2.558,0,0,0,.038-.808V44.055a1.966,1.966,0,0,0-.154-1c-.115-.154-.346-.231-.731-.192v-.308Z" transform="translate(-20.834 -26.077)"/>
  <path id="Path_2652" data-name="Path 2652" class="cls-1" d="M50.664,42.4v1.232A2.424,2.424,0,0,1,52.82,42.4a1.561,1.561,0,0,1,1.732,1.309,2.929,2.929,0,0,1,.924-1A2.39,2.39,0,0,1,56.67,42.4a1.818,1.818,0,0,1,1.617.731,1.677,1.677,0,0,1,.269.654,3.764,3.764,0,0,1,.077,1v2.695a2.383,2.383,0,0,0,.077.808c.039.192.116.308.269.346a2.181,2.181,0,0,0,.616.077v.308H56.246v-.308a1.875,1.875,0,0,0,.577-.077.437.437,0,0,0,.269-.346,2.559,2.559,0,0,0,.039-.808V44.787A2.992,2.992,0,0,0,56.9,43.4a.844.844,0,0,0-.77-.423,1.244,1.244,0,0,0-1.078.693,2.116,2.116,0,0,0-.385,1.232v2.579a4.684,4.684,0,0,0,.039.808c.038.192.115.308.269.346a2.181,2.181,0,0,0,.616.077v.308H52.281v-.308a1.876,1.876,0,0,0,.577-.077.437.437,0,0,0,.269-.346,4.685,4.685,0,0,0,.038-.808V44.787c0-1.232-.308-1.809-1-1.809a1.318,1.318,0,0,0-1.039.577,2.4,2.4,0,0,0-.423,1.424v2.5a4.685,4.685,0,0,0,.038.808q.058.289.231.346a2.086,2.086,0,0,0,.577.077v.308H48.2v-.308a2.181,2.181,0,0,0,.616-.077.437.437,0,0,0,.269-.346,2.559,2.559,0,0,0,.039-.808V44.055a1.8,1.8,0,0,0-.154-.962.85.85,0,0,0-.77-.192v-.308Z" transform="translate(-29.875 -26.077)"/>
  <path id="Path_2653" data-name="Path 2653" class="cls-1" d="M96.933,39.925v4.119a3.125,3.125,0,0,0,.038.654,1.655,1.655,0,0,0,.077.462.909.909,0,0,0,.231.346.621.621,0,0,0,.346.115,1.284,1.284,0,0,0,.847-.385l.192.308a2.557,2.557,0,0,1-1.694.616,1.4,1.4,0,0,1-1.386-.693,3.631,3.631,0,0,1-.115-.346c-.038-.115-.038-.308-.077-.5v-4.7H94.7V39.54a1.839,1.839,0,0,0,.693-.154,1.549,1.549,0,0,0,.5-.5,2.353,2.353,0,0,0,.269-.539,7.418,7.418,0,0,0,.192-.77l.616-.077a2.2,2.2,0,0,1-.038.5v1.54h1.5v.385Z" transform="translate(-58.473 -23.063)"/>
  <path id="Path_2654" data-name="Path 2654" class="cls-1" d="M82.4,46.3v-.962a3.988,3.988,0,0,0-1.886.5,1.392,1.392,0,0,0-.539,1.232,1.866,1.866,0,0,0,.269,1.039.834.834,0,0,0,.731.385,1.075,1.075,0,0,0,.693-.231,1.439,1.439,0,0,0,.5-.577,2.084,2.084,0,0,0,.154-.577A2.268,2.268,0,0,0,82.4,46.3m2.31,2.348v.269a6.526,6.526,0,0,1-.885.038,2.246,2.246,0,0,1-.885-.115,1.282,1.282,0,0,1-.385-.231.818.818,0,0,1-.154-.5,3.675,3.675,0,0,1-1,.77,2.761,2.761,0,0,1-1.116.231,1.862,1.862,0,0,1-1.386-.5,1.684,1.684,0,0,1-.5-1.309c0-1.039.654-1.732,1.963-1.963a14.355,14.355,0,0,1,2-.231V44.3a3.545,3.545,0,0,0-.192-1.347.757.757,0,0,0-.77-.346.8.8,0,0,0-.808.423.471.471,0,0,0-.116.346c-.038.115-.038.308-.077.539a.525.525,0,0,1-.192.462.813.813,0,0,1-.577.115c-.577,0-.847-.192-.847-.577a1.163,1.163,0,0,1,.193-.616,1.576,1.576,0,0,1,.577-.539,3.853,3.853,0,0,1,2-.462,2.545,2.545,0,0,1,1.809.5,1.409,1.409,0,0,1,.385.616,3,3,0,0,1,.115.924v2.81a6.016,6.016,0,0,0,.039.962.724.724,0,0,0,.192.423,1.319,1.319,0,0,0,.616.115" transform="translate(-48.448 -26.015)"/>
  <path id="Path_2655" data-name="Path 2655" class="cls-1" d="M109.942,46.3v-.962a3.585,3.585,0,0,0-1.886.5,1.392,1.392,0,0,0-.539,1.232,1.668,1.668,0,0,0,.27,1.039.792.792,0,0,0,.731.385,1.242,1.242,0,0,0,.693-.231,1.439,1.439,0,0,0,.5-.577,1.275,1.275,0,0,0,.154-.577,3.78,3.78,0,0,0,.077-.808m2.271,2.348v.269a6.525,6.525,0,0,1-.885.038,2.246,2.246,0,0,1-.885-.115,1.282,1.282,0,0,1-.385-.231.625.625,0,0,1-.154-.5,3.675,3.675,0,0,1-1,.77,2.633,2.633,0,0,1-1.116.231,1.862,1.862,0,0,1-1.386-.5,1.684,1.684,0,0,1-.5-1.309q0-1.559,1.963-1.963a14.355,14.355,0,0,1,2-.231V44.3a3.545,3.545,0,0,0-.192-1.347.757.757,0,0,0-.77-.346.8.8,0,0,0-.808.423.538.538,0,0,0-.115.346c-.038.115-.038.308-.077.539a.525.525,0,0,1-.193.462.813.813,0,0,1-.577.115c-.577,0-.847-.192-.847-.577a1.163,1.163,0,0,1,.192-.616,1.576,1.576,0,0,1,.577-.539,3.853,3.853,0,0,1,2-.462,2.545,2.545,0,0,1,1.809.5,1.88,1.88,0,0,1,.385.616,3,3,0,0,1,.115.924v2.81a6.018,6.018,0,0,0,.038.962.724.724,0,0,0,.193.423,1.4,1.4,0,0,0,.616.115" transform="translate(-65.361 -26.015)"/>
  <path id="Path_2656" data-name="Path 2656" class="cls-2" d="M188.138,15.441l-.038.462,9.124,10.664.308.077.038-.038.154-.308-3.888-12.974-.654-.423Z" transform="translate(-115.915 -7.934)"/>
  <path id="Path_2657" data-name="Path 2657" class="cls-3" d="M197.224,31.364l.308.077h0l-6.7-10.2L188.1,20.7Z" transform="translate(-115.915 -12.731)"/>
  <path id="Path_2658" data-name="Path 2658" class="cls-4" d="M195.3,15.633l.962.385,2-2.695h0l-.654-.423Z" transform="translate(-120.344 -7.934)"/>
  <path id="Path_2659" data-name="Path 2659" class="cls-5" d="M188.138,19.5l-.038.462h0l2.733.539.038-.808Z" transform="translate(-115.915 -11.993)"/>
  <path id="Path_2660" data-name="Path 2660" class="cls-5" d="M197.8,16.695l5.736,10.587h0l.154-.308L199.8,14Z" transform="translate(-121.881 -8.61)"/>
  <path id="Path_2661" data-name="Path 2661" class="cls-6" d="M219.089,12.2l5.89,2.695v.77l-9.663,14.629-.423.115-.077-.038-.116-.308,3.888-17.594Z" transform="translate(-132.275 -7.503)"/>
  <path id="Path_2662" data-name="Path 2662" class="cls-7" d="M221.36,21.546l-6.16,14.4.423-.115L225.287,21.2Z" transform="translate(-132.582 -13.038)"/>
  <path id="Path_2663" data-name="Path 2663" class="cls-8" d="M218.588,12.9,214.7,30.494l.116.308,5.12-14.976Z" transform="translate(-132.275 -7.934)"/>
  <path id="Path_2664" data-name="Path 2664" class="cls-9" d="M230.7,19.277l.192,1.039,3.927-.346h0V19.2Z" transform="translate(-142.115 -11.808)"/>
  <path id="Path_2665" data-name="Path 2665" class="cls-10" d="M224.8,12.469l1.347,2.926.924-.423L225.3,12.2Z" transform="translate(-138.487 -7.503)"/>
  <path id="Path_2666" data-name="Path 2666" class="cls-11" d="M202.8.539l.231-.462L210.538,0l.5.5-3.619,12.05-.231.154h0l-.231-.192Z" transform="translate(-124.956)"/>
  <path id="Path_2667" data-name="Path 2667" class="cls-12" d="M202.8.662h0l2.887,1.463.577-.654L203.031.2Z" transform="translate(-124.956 -0.123)"/>
  <path id="Path_2668" data-name="Path 2668" class="cls-13" d="M206.958,13.373l.231.192-1.5-10.7L202.8,1.4Z" transform="translate(-124.956 -0.861)"/>
  <path id="Path_2669" data-name="Path 2669" class="cls-14" d="M214,2.8l.077,10.7.231-.154L217.927,1.3h0Z" transform="translate(-131.844 -0.8)"/>
  <path id="Path_2670" data-name="Path 2670" class="cls-15" d="M211.8,1.347l.847.654L216.574.5l-.5-.5Z" transform="translate(-130.491)"/>
</svg>
