<svg id="web_logo_PG_L" xmlns="http://www.w3.org/2000/svg" width="99.954" height="18.683" viewBox="0 0 99.954 18.683">
  <defs>
    <style>
      .cls-1 {
        fill: #27328f;
      }
    </style>
  </defs>
  <g id="Group_173" data-name="Group 173" transform="translate(0 2.335)">
    <path id="Path_962" data-name="Path 962" class="cls-1" d="M3.714,9.907v4.359H.6V1.5H5.426c2.958,0,4.826,1.246,4.826,4.2,0,2.8-1.868,4.359-4.826,4.359H3.714ZM4.8,7.416c1.557,0,2.335-.467,2.335-1.713,0-1.09-.778-1.557-2.335-1.557H3.714v3.27Z" transform="translate(-0.6 -1.5)"/>
    <path id="Path_963" data-name="Path 963" class="cls-1" d="M10.425,7.492h1.713V7.181c0-.934-.156-1.246-1.4-1.246a1.64,1.64,0,0,0-1.557.623l-2.024-1.4C7.934,4.067,9.024,3.6,10.892,3.6c2.491,0,3.892.623,3.892,3.581V13.1h-2.8v-.778a1.993,1.993,0,0,1-1.868.934A2.7,2.7,0,0,1,7,10.45C7,8.582,8.557,7.492,10.425,7.492Zm1.713,2.024H10.892c-.778,0-1.09.156-1.09.778,0,.467.467.778,1.09.778.934,0,1.246-.623,1.246-1.4Z" transform="translate(2.964 -0.33)"/>
    <path id="Path_964" data-name="Path 964" class="cls-1" d="M15.414,3.7l1.713,5.293L18.683,3.7h2.8l-3.27,9.809c-.934,2.647-1.868,3.114-4.515,3.114V14.131c1.246,0,1.713-.156,2.024-.934L12.3,3.7h3.114Z" transform="translate(5.916 -0.275)"/>
    <path id="Path_965" data-name="Path 965" class="cls-1" d="M18.7,3.756h2.8v.778A2.291,2.291,0,0,1,23.526,3.6a2.828,2.828,0,0,1,2.491,1.246A3.579,3.579,0,0,1,28.664,3.6c2.024,0,3.27,1.246,3.27,3.737v5.916h-2.8V7.8c0-1.246-.311-1.868-1.246-1.868-.623,0-1.09.467-1.09,1.557v5.449H23.838V7.8c0-1.4-.467-1.868-1.09-1.868S21.5,6.4,21.5,7.8V13.1H18.7Z" transform="translate(9.48 -0.33)"/>
    <path id="Path_966" data-name="Path 966" class="cls-1" d="M35.729,11.7c-.623,1.09-1.713,1.557-3.425,1.557a3.843,3.843,0,0,1-4.2-4.2V7.8c0-2.958,1.557-4.2,3.892-4.2,2.647,0,3.892,1.557,3.892,4.515V9.2H30.9c0,1.09.311,1.868,1.4,1.868a1.5,1.5,0,0,0,1.4-.623ZM30.747,7.337h2.18c0-1.09-.467-1.4-1.09-1.4S30.9,6.558,30.747,7.337Z" transform="translate(14.715 -0.33)"/>
    <path id="Path_967" data-name="Path 967" class="cls-1" d="M34,3.756h2.8v.778A2.741,2.741,0,0,1,38.826,3.6c1.868,0,3.425.778,3.425,3.737v5.916h-2.8V7.8c0-1.246-.311-1.868-1.246-1.868s-1.4.623-1.4,1.868V13.1H34Z" transform="translate(18.001 -0.33)"/>
    <path id="Path_968" data-name="Path 968" class="cls-1" d="M39.9,4.424h1.246V2.4h2.8V4.424h1.713V6.759H43.948v3.425c0,.778.156,1.09.934,1.09h.778v2.491h-1.09c-2.335,0-3.425-.467-3.425-3.114V6.915H39.9V4.424Z" transform="translate(21.287 -0.999)"/>
  </g>
  <g id="Group_174" data-name="Group 174" transform="translate(71.462)">
    <path id="Path_969" data-name="Path 969" class="cls-1" d="M58.228,0,52,17.282h1.4L59.629,0Z" transform="translate(-43.437)"/>
    <path id="Path_970" data-name="Path 970" class="cls-1" d="M68.1,1.4,65.764,11.676,62.962,1.4H61.249l-2.8,10.12L56.89,4.67l-1.09,2.8,1.868,6.85h1.557l2.958-9.964,2.8,9.964H66.7L69.812,1.4Z" transform="translate(-41.321 0.78)"/>
    <path id="Path_971" data-name="Path 971" class="cls-1" d="M51.949,7.683l-.467,1.4h2.8c-.156,2.647-1.246,3.737-3.114,3.737-2.024,0-3.114-1.246-3.114-4.359v-1.4c0-3.27,1.09-4.359,3.114-4.359,1.713,0,2.647.778,3.114,2.647h1.557a7.109,7.109,0,0,0-.778-2.18A4.345,4.345,0,0,0,51.171,1.3c-2.8,0-4.671,1.713-4.671,5.916v1.4c0,4.2,1.868,5.916,4.671,5.916s4.671-1.713,4.671-5.916V7.683Z" transform="translate(-46.5 0.724)"/>
  </g>
</svg>
